Coordinates
version=1
nRows=6
nColumns=34
inDegrees=yes

Units are S.I. units (second, meters, Newtons, ...)
If the header above contains a line with 'inDegrees', this indicates whether rotational values are in degrees (yes) or radians (no).

endheader
time	pelvis_tilt	pelvis_list	pelvis_rotation	pelvis_tx	pelvis_ty	pelvis_tz	hip_flexion_r	hip_adduction_r	hip_rotation_r	knee_angle_r	ankle_angle_r	subtalar_angle_r	mtp_angle_r	hip_flexion_l	hip_adduction_l	hip_rotation_l	knee_angle_l	ankle_angle_l	subtalar_angle_l	mtp_angle_l	lumbar_extension	lumbar_bending	lumbar_rotation	arm_flex_r	arm_add_r	arm_rot_r	elbow_flex_r	pro_sup_r	arm_flex_l	arm_add_l	arm_rot_l	elbow_flex_l	pro_sup_l
      2.28333330	    -33.12775285	    -49.29032189	    -57.47623397	      0.09028541	      0.62790673	     -0.03204234	      0.72353589	     -0.30857503	    -23.50710098	     10.10560669	     17.60188458	      8.51513656	      0.00000000	      4.79003223	     -0.36113965	    -12.23887020	      0.00000000	     35.43546461	     22.50451810	      0.00000000	     -3.29562936	     -0.36843681	     -1.41790610	    -67.07165065	    -56.30010122	    -76.46850363	     50.81790891	    119.74817918	    -24.50854616	    -92.07447649	    -30.20562094	     44.45142730	    119.74817918
      2.30000000	    -33.25401288	    -49.24590281	    -57.37877422	      0.08911183	      0.62785758	     -0.03268484	      0.90419996	     -0.23060106	    -23.61388868	     10.15732460	     17.61063448	      8.52796002	      0.00000000	      5.00186355	     -0.42095385	    -12.55330775	      0.00000000	     34.94191554	     22.86802831	      0.00000000	     -3.38416240	     -0.30079301	     -1.30547796	    -68.54274508	    -55.81389382	    -78.02401705	     50.44379484	    119.74817918	    -24.36689313	    -92.61621181	    -29.96408477	     44.25672776	    119.74817918
      2.31666670	    -33.54134041	    -49.24180601	    -57.69175827	      0.08774011	      0.62803547	     -0.03286826	      1.15903582	     -0.05500881	    -23.67455842	     10.29117308	     17.64270932	      8.71714190	      0.00000000	      5.19429567	     -0.63941136	    -13.08053803	      0.00000000	     35.11225613	     23.35140113	      0.00000000	     -3.47934205	     -0.03255851	     -0.84933769	    -70.53785271	    -54.96786432	    -79.73068211	     50.92817061	    119.74817918	    -23.92116395	    -92.97050995	    -29.51244152	     44.15799128	    119.74817918
      2.33333330	    -33.63552877	    -49.20855555	    -57.61553101	      0.08657985	      0.62830161	     -0.03322939	      1.28144086	      0.04315708	    -23.82137094	     10.28866648	     17.66916267	      8.65487397	      0.00000000	      5.35950183	     -0.70966871	    -13.19381612	      0.00000000	     34.75495922	     23.55611507	      0.00000000	     -3.54332807	      0.00368344	     -0.76022058	    -71.31941288	    -54.67496482	    -80.75818609	     50.34171597	    119.74817918	    -23.52423556	    -93.23102628	    -29.58748350	     43.90432210	    119.74817918
      2.35000000	    -33.73924395	    -49.19559155	    -57.47402845	      0.08529553	      0.62859095	     -0.03350410	      1.39003380	      0.16144651	    -23.81765520	     10.29990687	     17.60728221	      8.71086928	      0.00000000	      5.51661053	     -0.78386755	    -13.29108548	      0.00000000	     34.68083485	     23.54917333	      0.00000000	     -3.63191507	     -0.02401399	     -0.74602661	    -71.72907415	    -54.23042680	    -81.15748151	     49.95551871	    119.74817918	    -23.16906755	    -93.60623081	    -29.83655513	     43.58242992	    119.74817918
      2.36666670	    -34.27643852	    -49.16484686	    -57.92850786	      0.08500448	      0.62762961	     -0.03382146	      1.76421525	      0.32579932	    -24.29290233	     10.57255048	     17.64176688	      9.05171571	      0.00000000	      5.78886242	     -1.04050788	    -13.52350274	      0.00000000	     34.87654131	     23.93455924	      0.00000000	     -3.52144701	      0.66363466	     -0.51780408	    -73.22931392	    -53.83178582	    -83.01087152	     50.12992541	    119.74817918	    -22.14568333	    -92.91318629	    -29.97678188	     43.79054639	    119.74817918
